<mxfile host="65bd71144e" pages="2">
    <diagram name="老師身分" id="T1-lcPKC6VEzc7ZUW3HW">
        <mxGraphModel dx="576" dy="332" grid="1" gridSize="10" guides="1" tooltips="1" connect="1" arrows="1" fold="1" page="1" pageScale="1" pageWidth="3300" pageHeight="4681" math="0" shadow="0">
            <root>
                <mxCell id="0"/>
                <mxCell id="1" parent="0"/>
                <mxCell id="A6yinwAQkWhH4kg1xcag-1" value="上傳資料" style="ellipse;shape=umlControl;whiteSpace=wrap;html=1;" parent="1" vertex="1">
                    <mxGeometry x="100" y="140" width="70" height="80" as="geometry"/>
                </mxCell>
                <mxCell id="A6yinwAQkWhH4kg1xcag-2" value="生成推薦內容" style="ellipse;shape=umlControl;whiteSpace=wrap;html=1;" parent="1" vertex="1">
                    <mxGeometry x="400" y="140" width="80" height="80" as="geometry"/>
                </mxCell>
                <mxCell id="A6yinwAQkWhH4kg1xcag-3" value="" style="line;strokeWidth=1;fillColor=none;align=left;verticalAlign=middle;spacingTop=-1;spacingLeft=3;spacingRight=3;rotatable=0;labelPosition=right;points=[];portConstraint=eastwest;strokeColor=inherit;" parent="1" vertex="1">
                    <mxGeometry x="170" y="180" width="230" height="8" as="geometry"/>
                </mxCell>
                <mxCell id="A6yinwAQkWhH4kg1xcag-4" value="&lt;span style=&quot;color: rgb(240, 240, 240); background-color: rgb(24, 20, 29);&quot;&gt;1:提出備課資料()&lt;/span&gt;" style="html=1;verticalAlign=bottom;endArrow=block;curved=0;rounded=0;" parent="1" edge="1">
                    <mxGeometry width="80" relative="1" as="geometry">
                        <mxPoint x="180" y="170" as="sourcePoint"/>
                        <mxPoint x="390" y="170" as="targetPoint"/>
                    </mxGeometry>
                </mxCell>
                <mxCell id="2" value="暫存資料庫" style="ellipse;shape=umlEntity;whiteSpace=wrap;html=1;" vertex="1" parent="1">
                    <mxGeometry x="680" y="144" width="80" height="80" as="geometry"/>
                </mxCell>
                <mxCell id="3" value="" style="line;strokeWidth=1;fillColor=none;align=left;verticalAlign=middle;spacingTop=-1;spacingLeft=3;spacingRight=3;rotatable=0;labelPosition=right;points=[];portConstraint=eastwest;strokeColor=inherit;" vertex="1" parent="1">
                    <mxGeometry x="480" y="180" width="200" height="8" as="geometry"/>
                </mxCell>
                <mxCell id="4" value="2:傳輸推薦資料" style="html=1;verticalAlign=bottom;endArrow=block;curved=0;rounded=0;" edge="1" parent="1">
                    <mxGeometry width="80" relative="1" as="geometry">
                        <mxPoint x="490" y="170" as="sourcePoint"/>
                        <mxPoint x="670" y="170" as="targetPoint"/>
                    </mxGeometry>
                </mxCell>
            </root>
        </mxGraphModel>
    </diagram>
    <diagram id="1ORrnruNFK2E-wTYoOYB" name="GPT身分">
        <mxGraphModel dx="576" dy="332" grid="1" gridSize="10" guides="1" tooltips="1" connect="1" arrows="1" fold="1" page="1" pageScale="1" pageWidth="3300" pageHeight="4681" math="0" shadow="0">
            <root>
                <mxCell id="0"/>
                <mxCell id="1" parent="0"/>
                <mxCell id="H0-WySXZtmj-vN_HTI1i-1" value="GPT" style="shape=umlActor;verticalLabelPosition=bottom;verticalAlign=top;html=1;" parent="1" vertex="1">
                    <mxGeometry x="70" y="248" width="30" height="60" as="geometry"/>
                </mxCell>
                <mxCell id="H0-WySXZtmj-vN_HTI1i-2" value="建立" style="ellipse;shape=umlControl;whiteSpace=wrap;html=1;" parent="1" vertex="1">
                    <mxGeometry x="260" y="88" width="70" height="80" as="geometry"/>
                </mxCell>
                <mxCell id="H0-WySXZtmj-vN_HTI1i-3" value="儲存" style="ellipse;shape=umlControl;whiteSpace=wrap;html=1;" parent="1" vertex="1">
                    <mxGeometry x="260" y="368" width="70" height="80" as="geometry"/>
                </mxCell>
                <mxCell id="H0-WySXZtmj-vN_HTI1i-4" value="GPT資料庫" style="ellipse;shape=umlEntity;whiteSpace=wrap;html=1;" parent="1" vertex="1">
                    <mxGeometry x="490" y="248" width="80" height="80" as="geometry"/>
                </mxCell>
                <mxCell id="H0-WySXZtmj-vN_HTI1i-6" value="" style="endArrow=none;html=1;rounded=0;entryX=0.038;entryY=0.9;entryDx=0;entryDy=0;entryPerimeter=0;exitX=1;exitY=0.3333333333333333;exitDx=0;exitDy=0;exitPerimeter=0;" parent="1" source="H0-WySXZtmj-vN_HTI1i-1" target="H0-WySXZtmj-vN_HTI1i-2" edge="1">
                    <mxGeometry width="50" height="50" relative="1" as="geometry">
                        <mxPoint x="170" y="308" as="sourcePoint"/>
                        <mxPoint x="220" y="258" as="targetPoint"/>
                    </mxGeometry>
                </mxCell>
                <mxCell id="H0-WySXZtmj-vN_HTI1i-8" value="" style="endArrow=none;html=1;rounded=0;entryX=0.971;entryY=0.825;entryDx=0;entryDy=0;entryPerimeter=0;exitX=0.008;exitY=0.183;exitDx=0;exitDy=0;exitPerimeter=0;" parent="1" source="H0-WySXZtmj-vN_HTI1i-4" target="H0-WySXZtmj-vN_HTI1i-2" edge="1">
                    <mxGeometry width="50" height="50" relative="1" as="geometry">
                        <mxPoint x="110" y="278" as="sourcePoint"/>
                        <mxPoint x="273" y="170" as="targetPoint"/>
                    </mxGeometry>
                </mxCell>
                <mxCell id="H0-WySXZtmj-vN_HTI1i-9" value="" style="endArrow=none;html=1;rounded=0;entryX=1.019;entryY=0.617;entryDx=0;entryDy=0;entryPerimeter=0;exitX=0;exitY=1;exitDx=0;exitDy=0;" parent="1" source="H0-WySXZtmj-vN_HTI1i-4" target="H0-WySXZtmj-vN_HTI1i-3" edge="1">
                    <mxGeometry width="50" height="50" relative="1" as="geometry">
                        <mxPoint x="521" y="283" as="sourcePoint"/>
                        <mxPoint x="338" y="164" as="targetPoint"/>
                    </mxGeometry>
                </mxCell>
                <mxCell id="H0-WySXZtmj-vN_HTI1i-10" value="" style="endArrow=classic;html=1;rounded=0;" parent="1" edge="1">
                    <mxGeometry width="50" height="50" relative="1" as="geometry">
                        <mxPoint x="110" y="248" as="sourcePoint"/>
                        <mxPoint x="240" y="158" as="targetPoint"/>
                    </mxGeometry>
                </mxCell>
                <mxCell id="H0-WySXZtmj-vN_HTI1i-11" value="&lt;span style=&quot;color: rgb(240, 240, 240); font-family: Helvetica; font-size: 11px; font-style: normal; font-variant-ligatures: normal; font-variant-caps: normal; font-weight: 400; letter-spacing: normal; orphans: 2; text-align: center; text-indent: 0px; text-transform: none; widows: 2; word-spacing: 0px; -webkit-text-stroke-width: 0px; white-space: nowrap; background-color: rgb(24, 20, 29); text-decoration-thickness: initial; text-decoration-style: initial; text-decoration-color: initial; display: inline !important; float: none;&quot;&gt;1:建立備課資料()&lt;/span&gt;" style="text;whiteSpace=wrap;html=1;rotation=-30;" parent="1" vertex="1">
                    <mxGeometry x="110" y="168" width="120" height="40" as="geometry"/>
                </mxCell>
                <mxCell id="H0-WySXZtmj-vN_HTI1i-14" value="" style="curved=1;endArrow=classic;html=1;rounded=0;entryX=0.848;entryY=0.142;entryDx=0;entryDy=0;entryPerimeter=0;exitX=0.162;exitY=0.242;exitDx=0;exitDy=0;exitPerimeter=0;" parent="1" source="H0-WySXZtmj-vN_HTI1i-2" target="H0-WySXZtmj-vN_HTI1i-2" edge="1">
                    <mxGeometry width="50" height="50" relative="1" as="geometry">
                        <mxPoint x="260" y="100" as="sourcePoint"/>
                        <mxPoint x="340" y="100" as="targetPoint"/>
                        <Array as="points">
                            <mxPoint x="260" y="70"/>
                            <mxPoint x="270" y="50"/>
                            <mxPoint x="300" y="30"/>
                            <mxPoint x="330" y="50"/>
                        </Array>
                    </mxGeometry>
                </mxCell>
                <mxCell id="H0-WySXZtmj-vN_HTI1i-15" value="&lt;span style=&quot;color: rgb(240, 240, 240); font-family: Helvetica; font-size: 11px; font-style: normal; font-variant-ligatures: normal; font-variant-caps: normal; font-weight: 400; letter-spacing: normal; orphans: 2; text-align: left; text-indent: 0px; text-transform: none; widows: 2; word-spacing: 0px; -webkit-text-stroke-width: 0px; white-space: nowrap; background-color: rgb(24, 20, 29); text-decoration-thickness: initial; text-decoration-style: initial; text-decoration-color: initial; display: inline !important; float: none;&quot;&gt;2:分析備課資料()&lt;/span&gt;" style="text;whiteSpace=wrap;html=1;" parent="1" vertex="1">
                    <mxGeometry x="330" y="40" width="120" height="40" as="geometry"/>
                </mxCell>
                <mxCell id="H0-WySXZtmj-vN_HTI1i-16" value="" style="endArrow=classic;html=1;rounded=0;" parent="1" edge="1">
                    <mxGeometry width="50" height="50" relative="1" as="geometry">
                        <mxPoint x="350" y="150" as="sourcePoint"/>
                        <mxPoint x="480" y="240" as="targetPoint"/>
                    </mxGeometry>
                </mxCell>
                <mxCell id="H0-WySXZtmj-vN_HTI1i-17" value="&lt;span style=&quot;color: rgb(240, 240, 240); font-family: Helvetica; font-size: 11px; font-style: normal; font-variant-ligatures: normal; font-variant-caps: normal; font-weight: 400; letter-spacing: normal; orphans: 2; text-align: center; text-indent: 0px; text-transform: none; widows: 2; word-spacing: 0px; -webkit-text-stroke-width: 0px; white-space: nowrap; background-color: rgb(24, 20, 29); text-decoration-thickness: initial; text-decoration-style: initial; text-decoration-color: initial; display: inline !important; float: none;&quot;&gt;3:傳送分析資料()&lt;/span&gt;" style="text;whiteSpace=wrap;html=1;rotation=30;" parent="1" vertex="1">
                    <mxGeometry x="370" y="168" width="120" height="40" as="geometry"/>
                </mxCell>
                <mxCell id="H0-WySXZtmj-vN_HTI1i-18" value="" style="endArrow=classic;html=1;rounded=0;dashed=1;" parent="1" edge="1">
                    <mxGeometry width="50" height="50" relative="1" as="geometry">
                        <mxPoint x="480" y="310" as="sourcePoint"/>
                        <mxPoint x="340" y="390" as="targetPoint"/>
                    </mxGeometry>
                </mxCell>
                <mxCell id="H0-WySXZtmj-vN_HTI1i-19" value="&lt;span style=&quot;color: rgb(240, 240, 240); font-family: Helvetica; font-size: 11px; font-style: normal; font-variant-ligatures: normal; font-variant-caps: normal; font-weight: 400; letter-spacing: normal; orphans: 2; text-align: center; text-indent: 0px; text-transform: none; widows: 2; word-spacing: 0px; -webkit-text-stroke-width: 0px; white-space: nowrap; background-color: rgb(24, 20, 29); text-decoration-thickness: initial; text-decoration-style: initial; text-decoration-color: initial; display: inline !important; float: none;&quot;&gt;4:儲存推薦資料()&lt;/span&gt;" style="text;whiteSpace=wrap;html=1;rotation=-30;" parent="1" vertex="1">
                    <mxGeometry x="340" y="308" width="120" height="40" as="geometry"/>
                </mxCell>
            </root>
        </mxGraphModel>
    </diagram>
</mxfile>